# xmcd
#
# Track frame offsets:
#	150
#	18120
#	34625
#	50762
#	74335
#	96810
#	112985
#	128872
#	142225
#	159472
#
# Disc length: 2386 seconds
#
# Revision: 1
# Processed by: cddbd v1.5.2PL0 Copyright (c) Steve Scherf et al.
# Submitted via: audiograbber 1.83.01
#
DISCID=8609500a
DTITLE=Juliet Turner - Let's Hear It For Pizza
DYEAR=1996
DGENRE=Folk
TTITLE0=Dr Fell
TTITLE1=Greedy Mouth
TTITLE2=Pizza and Wine
TTITLE3=Beyond The Backyard
TTITLE4=Short Loan Only
TTITLE5=Edward
TTITLE6=Indian Summer
TTITLE7=Glory To The Ground
TTITLE8=Too Close For Comfort
TTITLE9=Purely Platonic
EXTD=
EXTT0=
EXTT1=
EXTT2=
EXTT3=
EXTT4=
EXTT5=
EXTT6=
EXTT7=
EXTT8=
EXTT9=
PLAYORDER=
